<svg width="14" height="16" viewBox="0 0 14 16" fill="none" xmlns="http://www.w3.org/2000/svg">
<path d="M4.625 9H3.375C3.15625 9 3 8.84375 3 8.625V7.375C3 7.1875 3.15625 7 3.375 7H4.625C4.8125 7 5 7.1875 5 7.375V8.625C5 8.84375 4.8125 9 4.625 9ZM8 8.625C8 8.84375 7.8125 9 7.625 9H6.375C6.15625 9 6 8.84375 6 8.625V7.375C6 7.1875 6.15625 7 6.375 7H7.625C7.8125 7 8 7.1875 8 7.375V8.625ZM11 8.625C11 8.84375 10.8125 9 10.625 9H9.375C9.15625 9 9 8.84375 9 8.625V7.375C9 7.1875 9.15625 7 9.375 7H10.625C10.8125 7 11 7.1875 11 7.375V8.625ZM8 11.625C8 11.8438 7.8125 12 7.625 12H6.375C6.15625 12 6 11.8438 6 11.625V10.375C6 10.1875 6.15625 10 6.375 10H7.625C7.8125 10 8 10.1875 8 10.375V11.625ZM5 11.625C5 11.8438 4.8125 12 4.625 12H3.375C3.15625 12 3 11.8438 3 11.625V10.375C3 10.1875 3.15625 10 3.375 10H4.625C4.8125 10 5 10.1875 5 10.375V11.625ZM11 11.625C11 11.8438 10.8125 12 10.625 12H9.375C9.15625 12 9 11.8438 9 11.625V10.375C9 10.1875 9.15625 10 9.375 10H10.625C10.8125 10 11 10.1875 11 10.375V11.625ZM14 3.5V14.5C14 15.3438 13.3125 16 12.5 16H1.5C0.65625 16 0 15.3438 0 14.5V3.5C0 2.6875 0.65625 2 1.5 2H3V0.375C3 0.1875 3.15625 0 3.375 0H4.625C4.8125 0 5 0.1875 5 0.375V2H9V0.375C9 0.1875 9.15625 0 9.375 0H10.625C10.8125 0 11 0.1875 11 0.375V2H12.5C13.3125 2 14 2.6875 14 3.5ZM12.5 14.3125V5H1.5V14.3125C1.5 14.4375 1.5625 14.5 1.6875 14.5H12.3125C12.4062 14.5 12.5 14.4375 12.5 14.3125Z" fill="#F2F2F2"/>
</svg>
