<svg aria-hidden="true" style="width: 0px; height: 0px; overflow: hidden; position: absolute;" xmlns="http://www.w3.org/2000/svg">
  <symbol id="settings" viewBox="0 0 24 24">
    <path d="M21.7858 14.4869L21.1117 14.2093C20.2052 13.8391 19.6241 12.9832 19.6241 12.0116C19.6241 11.9884 19.6241 11.9884 19.6241 11.9653C19.6241 10.9937 20.2052 10.1378 21.1117 9.76761L21.7858 9.49001C22.4367 9.23554 22.6924 8.449 22.3437 7.84753L20.7631 5.11777C20.4144 4.5163 19.6009 4.35436 19.0663 4.7939L18.4619 5.25657C17.6948 5.83491 16.6953 5.85804 15.8585 5.37224C15.8585 5.37224 15.8353 5.37224 15.8353 5.34911C14.9985 4.8633 14.4871 3.98423 14.6266 3.03575L14.7428 2.29548C14.8358 1.60147 14.3012 1 13.6039 1H10.4194C9.72206 1 9.18744 1.62461 9.28042 2.29548L9.39664 3.03575C9.53611 3.98423 9.02473 4.8633 8.18794 5.34911C8.18794 5.34911 8.1647 5.34911 8.1647 5.37224C7.3279 5.85804 6.30516 5.83491 5.56134 5.25657L4.95699 4.7939C4.39913 4.35436 3.60882 4.5163 3.26016 5.11777L1.6563 7.87066C1.30764 8.47214 1.56333 9.23554 2.21417 9.51314L2.88825 9.79075C3.79478 10.1609 4.37588 11.0168 4.37588 11.9884C4.37588 12.0116 4.37588 12.0116 4.37588 12.0347C4.37588 13.0063 3.79478 13.8854 2.88825 14.2324L2.21417 14.51C1.56333 14.7645 1.30764 15.551 1.6563 16.1525L3.23691 18.8822C3.58558 19.4837 4.39913 19.6456 4.93375 19.2061L5.5381 18.7434C6.30516 18.1651 7.30466 18.142 8.14145 18.6278C8.14145 18.6278 8.1647 18.6278 8.1647 18.6509C9.00149 19.1367 9.51287 20.0158 9.3734 20.9643L9.25718 21.7045C9.1642 22.3985 9.69882 23 10.3961 23H13.5574C14.2547 23 14.7893 22.3754 14.6963 21.7045L14.5801 20.9643C14.4406 20.0158 14.952 19.1367 15.7888 18.6509C15.7888 18.6509 15.8121 18.6509 15.8121 18.6278C16.6489 18.142 17.6716 18.1651 18.4154 18.7434L19.0198 19.2061C19.5776 19.6456 20.3679 19.4837 20.7166 18.8822L22.2972 16.1525C22.7156 15.5047 22.4367 14.7413 21.7858 14.4869ZM12 16.0831C9.72206 16.0831 7.88577 14.2555 7.88577 11.9884C7.88577 9.72135 9.72206 7.8938 12 7.8938C14.2779 7.8938 16.1142 9.72135 16.1142 11.9884C16.1142 14.2555 14.2779 16.0831 12 16.0831Z" />
    </symbol>
    <symbol id="close" viewBox="0 0 24 24">
        <path d="M13.8359 12.5L18.0547 16.7188C18.2891 16.9531 18.2891 17.3828 18.0547 17.6172L17.0781 18.5938C16.8438 18.8281 16.4141 18.8281 16.1797 18.5938L12 14.375L7.78125 18.5938C7.54688 18.8281 7.11719 18.8281 6.88281 18.5938L5.90625 17.6172C5.67188 17.3828 5.67188 16.9531 5.90625 16.7188L10.125 12.5L5.90625 8.32031C5.67188 8.08594 5.67188 7.65625 5.90625 7.42188L6.88281 6.44531C7.11719 6.21094 7.54688 6.21094 7.78125 6.44531L12 10.6641L16.1797 6.44531C16.4141 6.21094 16.8438 6.21094 17.0781 6.44531L18.0547 7.42188C18.2891 7.65625 18.2891 8.08594 18.0547 8.32031L13.8359 12.5Z"/>
    </symbol>
    <symbol id="calendar" viewBox="0 0 24 24">
      <path d="M9.6,13H8.4C8.2,13,8,12.8,8,12.6v-1.2C8,11.2,8.2,11,8.4,11h1.3c0.1,0,0.3,0.2,0.3,0.4v1.3C10,12.8,9.8,13,9.6,13z M13,12.6c0,0.2-0.2,0.4-0.4,0.4h-1.2c-0.2,0-0.4-0.2-0.4-0.4v-1.2c0-0.2,0.2-0.4,0.4-0.4h1.3c0.1,0,0.3,0.2,0.3,0.4V12.6z M16,12.6c0,0.2-0.2,0.4-0.4,0.4h-1.3c-0.1,0-0.3-0.2-0.3-0.4v-1.2c0-0.2,0.2-0.4,0.4-0.4h1.3c0.1,0,0.3,0.2,0.3,0.4V12.6z M13,15.6c0,0.2-0.2,0.4-0.4,0.4h-1.2c-0.2,0-0.4-0.2-0.4-0.4v-1.3c0-0.1,0.2-0.3,0.4-0.3h1.3c0.1,0,0.3,0.2,0.3,0.4V15.6z M10,15.6c0,0.2-0.2,0.4-0.4,0.4H8.4C8.2,16,8,15.8,8,15.6v-1.3C8,14.2,8.2,14,8.4,14h1.3c0.1,0,0.3,0.2,0.3,0.4V15.6z M16,15.6c0,0.2-0.2,0.4-0.4,0.4h-1.3c-0.2,0-0.4-0.2-0.4-0.4v-1.3c0-0.2,0.2-0.4,0.4-0.4h1.3c0.2,0,0.4,0.2,0.4,0.4V15.6z M19,7.5v11c0,0.8-0.7,1.5-1.5,1.5h-11C5.7,20,5,19.3,5,18.5v-11C5,6.7,5.7,6,6.5,6H8V4.4C8,4.2,8.2,4,8.4,4h1.3C9.8,4,10,4.2,10,4.4V6h4V4.4C14,4.2,14.2,4,14.4,4h1.3C15.8,4,16,4.2,16,4.4V6h1.5C18.3,6,19,6.7,19,7.5z M17.5,18.3V9h-11v9.3c0,0.1,0.1,0.2,0.2,0.2h10.6C17.4,18.5,17.5,18.4,17.5,18.3z"/>
      </symbol>
      <symbol id="show_pass" viewBox="0 0 24 24">
        <path d="M23.1,19.6c0.1,0.1,0.2,0.3,0.2,0.5c0,0.1-0.1,0.3-0.1,0.4l-0.4,0.4c-0.1,0.1-0.3,0.2-0.4,0.2c-0.1,0-0.3,0-0.4-0.1L1,4.4C0.8,4.4,0.7,4.2,0.7,4c0-0.1,0.1-0.3,0.1-0.4l0.4-0.5C1.3,3.1,1.5,3,1.7,3C1.8,3,1.9,3.1,2,3.1L23.1,19.6z M11.2,8.2c0.2,0,0.6-0.1,0.8-0.1c2.1,0,3.8,1.7,3.9,3.8L11.2,8.2z M12.8,15.9c-0.2,0-0.6,0.1-0.8,0.1c-2.1,0-3.9-1.7-3.9-3.8L12.8,15.9z M12,6.9c-0.7,0-1.4,0.1-2.1,0.3L8.3,5.9c1.2-0.4,2.4-0.7,3.7-0.7c4.3,0,8.1,2.5,10,6.3c0.1,0.1,0.1,0.4,0.1,0.5c0,0.2-0.1,0.4-0.1,0.5c-0.4,0.8-1.2,2-1.9,2.6l-1.3-1c0.5-0.5,1.2-1.5,1.5-2.1C18.7,8.9,15.5,6.9,12,6.9z M12,17.1c0.7,0,1.4-0.1,2-0.2l1.6,1.3c-1.2,0.4-2.4,0.6-3.7,0.6c-4.3,0-8.1-2.5-10-6.2c-0.1-0.1-0.1-0.4-0.1-0.5c0-0.2,0-0.4,0.1-0.5c0.4-0.8,1.2-2,1.9-2.6l1.3,1C4.7,10.4,4,11.4,3.7,12C5.3,15.1,8.5,17.1,12,17.1z"/>
      </symbol>
      <symbol id="hide_pass" viewBox="0 0 24 24">
        <path d="M12,8.1c-0.4,0-0.7,0.1-1.1,0.2c0.2,0.3,0.3,0.6,0.3,1c0,1.1-0.9,2-2,2c-0.3,0-0.7-0.1-1-0.3c-0.6,2.1,0.6,4.3,2.7,4.9c2.1,0.6,4.3-0.6,4.9-2.7s-0.6-4.3-2.7-4.9C12.7,8.1,12.3,8.1,12,8.1z M22,11.5C20.1,7.8,16.3,5.2,12,5.2S3.8,7.8,1.9,11.5c-0.2,0.3-0.2,0.7,0,1c1.9,3.7,5.7,6.3,10.1,6.3s8.1-2.5,10.1-6.3C22.2,12.2,22.2,11.8,22,11.5z M12,17.1c-3.5,0-6.7-1.9-8.4-5.1C5.3,8.9,8.5,6.9,12,6.9s6.7,1.9,8.4,5.1C18.7,15.1,15.5,17.1,12,17.1z"/>
      </symbol>
      <symbol id="question" viewBox="0 0 20 20">
        <path d="M10,3.2c3.7,0,6.8,3.1,6.8,6.8c0,3.7-3.1,6.8-6.8,6.8c-3.7,0-6.8-3-6.8-6.8C3.2,6.3,6.3,3.2,10,3.2z M10,15.5c3,0,5.5-2.4,5.5-5.5c0-3-2.5-5.5-5.5-5.5C7,4.5,4.5,7,4.5,10C4.5,13,7,15.5,10,15.5z M12.9,8.5c0,1.8-2,1.9-2,2.5v0.2c0,0.2-0.1,0.3-0.3,0.3H9.4c-0.2,0-0.3-0.1-0.3-0.3V11c0-1,0.7-1.4,1.3-1.7c0.5-0.3,0.8-0.4,0.8-0.8c0-0.5-0.6-0.8-1.1-0.8C9.4,7.7,9.1,8,8.7,8.5C8.6,8.7,8.4,8.7,8.2,8.6L7.5,8C7.3,7.9,7.3,7.7,7.4,7.6c0.6-1,1.4-1.5,2.7-1.5C11.5,6.1,12.9,7.1,12.9,8.5z M11.1,13.1c0,0.7-0.5,1.1-1.1,1.1c-0.7,0-1.1-0.5-1.1-1.1c0-0.6,0.5-1.1,1.1-1.1C10.6,11.9,11.1,12.4,11.1,13.1z"/>
      </symbol>
</svg>
