<svg width="96" height="120" viewBox="0 0 96 120" fill="none" xmlns="http://www.w3.org/2000/svg">
<circle cx="48" cy="48" r="48" fill="#6F6F6F"/>
<path d="M34.9688 50.0625L33.9375 49.0312C33.375 48.4688 33.375 47.4375 33.9375 46.875L40.875 39.9375C41.4375 39.375 42.4688 39.375 43.0312 39.9375L51 47.9062L59.1562 39.6562L56.4375 36.8438C54.9375 35.4375 55.9688 33 58.0312 33H67.5C68.25 33 69 33.75 69 34.5V43.9688C69 46.0312 66.5625 47.0625 65.1562 45.5625L62.3438 42.8438L52.0312 53.1562C51.4688 53.7188 50.4375 53.7188 49.875 53.1562L42 45.1875L37.125 50.0625C36.5625 50.625 35.5312 50.625 34.9688 50.0625ZM70.5 61.5C71.25 61.5 72 62.25 72 63V64.5C72 65.3438 71.25 66 70.5 66H27C25.3125 66 24 64.6875 24 63V31.5C24 30.75 24.6562 30 25.5 30H27C27.75 30 28.5 30.75 28.5 31.5V61.5H70.5Z" fill="#272727"/>
<rect x="49" y="120" width="2" height="24" transform="rotate(-180 49 120)" fill="url(#paint0_linear_601_90)"/>
<defs>
<linearGradient id="paint0_linear_601_90" x1="50" y1="120" x2="50" y2="144" gradientUnits="userSpaceOnUse">
<stop stop-color="#6E6E6E" stop-opacity="0"/>
<stop offset="1" stop-color="#6E6E6E"/>
</linearGradient>
</defs>
</svg>
