<svg width="108" height="144" viewBox="0 0 108 144" fill="none" xmlns="http://www.w3.org/2000/svg">
<circle cx="54" cy="72" r="53" fill="#1F1F1F" stroke="#6E6E6E" stroke-width="2"/>
<circle cx="54" cy="72" r="48" fill="#6F6F6F"/>
<path d="M33.2812 81.0938C37.0312 77.25 42.0938 77.0625 45.5625 80.4375C48.9375 83.9062 48.75 88.9688 44.9062 92.7188C42.5625 95.1562 36.4688 96.2812 30 96C29.7188 89.5312 30.8438 83.4375 33.2812 81.0938ZM40.9688 88.9688C42.1875 87.6562 42.2812 85.9688 41.1562 84.8438C40.0312 83.7188 38.3438 83.8125 37.0312 85.0312C36.2812 85.875 35.9062 87.8438 36 90C38.1562 90.0938 40.125 89.7188 40.9688 88.9688ZM77.3438 49.875C78 52.875 78 55.2188 77.9062 57.5625C77.9062 67.2188 72.75 73.0312 65.9062 77.3438V87.1875C65.9062 88.6875 64.875 90.4688 63.4688 91.2188L54.1875 95.8125C53.9062 95.9062 53.5312 96 53.25 96C51.9375 96 51 95.0625 51 93.75V84C51 79.125 46.9688 75 42 75H32.25C30.9375 75 30 74.0625 30 72.75C30 72.4688 30.0938 72.0938 30.1875 71.8125L34.875 62.5312C35.5312 61.125 37.3125 60 38.8125 60H48.6562C52.9688 53.25 58.7812 48 68.4375 48C70.7812 48 73.125 48 76.125 48.6562C76.6875 48.8438 77.1562 49.3125 77.3438 49.875ZM63.5625 73.5938C70.5 69.1875 73.4062 64.3125 73.4062 57.5625C73.5 55.9688 73.5 54.4688 73.2188 52.7812C71.5312 52.5 70.125 52.5 68.4375 52.5C61.5938 52.5 56.8125 55.5 52.4062 62.4375C50.9062 64.875 51.75 63.1875 47.5312 71.8125C50.0625 72.9375 53.0625 75.9375 54.1875 78.4688C62.8125 74.25 61.125 75.0938 63.5625 73.5938ZM64.5 57.75C66.5625 57.8438 68.25 59.4375 68.25 61.5C68.25 63.6562 66.5625 65.25 64.5 65.25C62.3438 65.25 60.75 63.6562 60.75 61.5C60.75 59.4375 62.3438 57.8438 64.5 57.75Z" fill="#272727"/>
<rect x="55" y="144" width="2" height="24" transform="rotate(-180 55 144)" fill="url(#paint0_linear_601_204)"/>
<rect x="53" width="2" height="24" fill="url(#paint1_linear_601_204)"/>
<defs>
<linearGradient id="paint0_linear_601_204" x1="56" y1="144" x2="56" y2="168" gradientUnits="userSpaceOnUse">
<stop stop-color="#6E6E6E" stop-opacity="0"/>
<stop offset="1" stop-color="#6E6E6E"/>
</linearGradient>
<linearGradient id="paint1_linear_601_204" x1="54" y1="0" x2="54" y2="24" gradientUnits="userSpaceOnUse">
<stop stop-color="#6E6E6E" stop-opacity="0"/>
<stop offset="1" stop-color="#6E6E6E"/>
</linearGradient>
</defs>
</svg>
