<svg width="96" height="120" viewBox="0 0 96 120" fill="none" xmlns="http://www.w3.org/2000/svg">
<circle cx="48" cy="48" r="48" fill="#6F6F6F"/>
<path d="M71.5312 35.0625C72.75 39.9375 71.25 45.1875 67.6875 48.75C64.125 52.3125 59.1562 53.7188 54.2812 52.5938L37.0312 69.75C35.625 71.25 33.6562 72 31.6875 72C29.625 72 27.6562 71.25 26.25 69.75C24.75 68.3438 24 66.375 24 64.4062C24 62.3438 24.75 60.375 26.25 58.9688L43.4062 41.7188C42.2812 36.8438 43.6875 31.7812 47.25 28.3125C50.8125 24.6562 55.9688 23.25 60.9375 24.4688C62.1562 24.75 63 25.6875 63.375 26.8125C63.6562 27.9375 63.375 29.1562 62.5312 30L57 35.4375L57.4688 38.5312L60.5625 39L66.0938 33.4688C66.8438 32.7188 68.0625 32.3438 69.1875 32.7188C70.4062 33 71.25 33.9375 71.5312 35.0625ZM64.5 45.5625C66.4688 43.6875 67.5 41.0625 67.5 38.4375L62.0625 43.875L53.625 42.375L52.2188 33.9375L57.5625 28.5938H57.4688C54.8438 28.5938 52.3125 29.5312 50.4375 31.5C47.7188 34.125 46.875 38.0625 48.0938 41.7188L48.4688 43.0312L29.3438 62.0625C28.7812 62.7188 28.5 63.4688 28.5 64.4062C28.5 65.25 28.7812 66 29.3438 66.6562C30.5625 67.7812 32.7188 67.7812 33.9375 66.6562L52.9688 47.5312L54.2812 48C57.9375 49.125 61.875 48.2812 64.5 45.5625ZM32.25 62.3438C33 62.3438 33.75 63 33.75 63.8438C33.75 64.5938 33 65.3438 32.25 65.3438C31.4062 65.3438 30.75 64.5938 30.75 63.8438C30.75 63 31.4062 62.3438 32.25 62.3438Z" fill="#272727"/>
<rect x="49" y="120" width="2" height="24" transform="rotate(-180 49 120)" fill="url(#paint0_linear_601_80)"/>
<defs>
<linearGradient id="paint0_linear_601_80" x1="50" y1="120" x2="50" y2="144" gradientUnits="userSpaceOnUse">
<stop stop-color="#6E6E6E" stop-opacity="0"/>
<stop offset="1" stop-color="#6E6E6E"/>
</linearGradient>
</defs>
</svg>
